<svg width="328" height="83" viewBox="0 0 328 83" fill="none" xmlns="http://www.w3.org/2000/svg">
<path d="M118.1 80C118.033 80 117.977 79.98 117.93 79.94C117.89 79.8933 117.87 79.8367 117.87 79.77V73.24C117.87 73.1667 117.89 73.11 117.93 73.07C117.977 73.0233 118.033 73 118.1 73H118.61C118.683 73 118.74 73.0233 118.78 73.07C118.827 73.11 118.85 73.1667 118.85 73.24V76H122.29V73.24C122.29 73.1667 122.31 73.11 122.35 73.07C122.397 73.0233 122.453 73 122.52 73H123.03C123.103 73 123.16 73.0233 123.2 73.07C123.247 73.11 123.27 73.1667 123.27 73.24V79.77C123.27 79.8367 123.247 79.8933 123.2 79.94C123.153 79.98 123.097 80 123.03 80H122.52C122.453 80 122.397 79.98 122.35 79.94C122.31 79.8933 122.29 79.8367 122.29 79.77V76.9H118.85V79.77C118.85 79.8367 118.827 79.8933 118.78 79.94C118.733 79.98 118.677 80 118.61 80H118.1ZM127.009 80.1C126.275 80.1 125.705 79.8933 125.299 79.48C124.899 79.0667 124.685 78.5167 124.659 77.83L124.649 77.4L124.659 76.97C124.685 76.29 124.902 75.7433 125.309 75.33C125.715 74.91 126.282 74.7 127.009 74.7C127.735 74.7 128.302 74.91 128.709 75.33C129.115 75.7433 129.332 76.29 129.359 76.97C129.365 77.0433 129.369 77.1867 129.369 77.4C129.369 77.6133 129.365 77.7567 129.359 77.83C129.332 78.5167 129.115 79.0667 128.709 79.48C128.309 79.8933 127.742 80.1 127.009 80.1ZM127.009 79.33C127.429 79.33 127.759 79.1967 127.999 78.93C128.245 78.6633 128.379 78.28 128.399 77.78C128.405 77.7133 128.409 77.5867 128.409 77.4C128.409 77.2133 128.405 77.0867 128.399 77.02C128.379 76.52 128.245 76.1367 127.999 75.87C127.759 75.6033 127.429 75.47 127.009 75.47C126.589 75.47 126.255 75.6033 126.009 75.87C125.762 76.1367 125.632 76.52 125.619 77.02L125.609 77.4L125.619 77.78C125.632 78.28 125.762 78.6633 126.009 78.93C126.255 79.1967 126.589 79.33 127.009 79.33ZM130.851 80C130.784 80 130.728 79.98 130.681 79.94C130.641 79.8933 130.621 79.8367 130.621 79.77V75.03C130.621 74.9633 130.641 74.91 130.681 74.87C130.728 74.8233 130.784 74.8 130.851 74.8H131.301C131.368 74.8 131.421 74.8233 131.461 74.87C131.508 74.91 131.531 74.9633 131.531 75.03V75.38C131.878 74.9267 132.361 74.7 132.981 74.7C133.721 74.7 134.244 75.0067 134.551 75.62C134.711 75.34 134.938 75.1167 135.231 74.95C135.524 74.7833 135.854 74.7 136.221 74.7C136.768 74.7 137.214 74.8867 137.561 75.26C137.908 75.6333 138.081 76.1733 138.081 76.88V79.77C138.081 79.8367 138.058 79.8933 138.011 79.94C137.971 79.98 137.918 80 137.851 80H137.381C137.314 80 137.258 79.98 137.211 79.94C137.171 79.8933 137.151 79.8367 137.151 79.77V76.97C137.151 76.45 137.041 76.0767 136.821 75.85C136.608 75.6233 136.324 75.51 135.971 75.51C135.658 75.51 135.388 75.6267 135.161 75.86C134.934 76.0867 134.821 76.4567 134.821 76.97V79.77C134.821 79.8367 134.798 79.8933 134.751 79.94C134.711 79.98 134.658 80 134.591 80H134.121C134.054 80 133.998 79.98 133.951 79.94C133.911 79.8933 133.891 79.8367 133.891 79.77V76.97C133.891 76.45 133.778 76.0767 133.551 75.85C133.331 75.6233 133.051 75.51 132.711 75.51C132.398 75.51 132.128 75.6267 131.901 75.86C131.674 76.0867 131.561 76.4533 131.561 76.96V79.77C131.561 79.8367 131.538 79.8933 131.491 79.94C131.451 79.98 131.398 80 131.331 80H130.851ZM141.588 80.1C140.901 80.1 140.351 79.89 139.938 79.47C139.531 79.0433 139.308 78.4633 139.268 77.73L139.258 77.39L139.268 77.06C139.314 76.34 139.541 75.7667 139.948 75.34C140.361 74.9133 140.904 74.7 141.578 74.7C142.318 74.7 142.891 74.9367 143.298 75.41C143.704 75.8767 143.908 76.51 143.908 77.31V77.48C143.908 77.5467 143.884 77.6033 143.838 77.65C143.798 77.69 143.744 77.71 143.678 77.71H140.218V77.8C140.238 78.2333 140.368 78.6033 140.608 78.91C140.854 79.21 141.178 79.36 141.578 79.36C141.884 79.36 142.134 79.3 142.328 79.18C142.528 79.0533 142.674 78.9233 142.768 78.79C142.828 78.71 142.871 78.6633 142.898 78.65C142.931 78.63 142.988 78.62 143.068 78.62H143.558C143.618 78.62 143.668 78.6367 143.708 78.67C143.748 78.7033 143.768 78.75 143.768 78.81C143.768 78.9567 143.674 79.1333 143.488 79.34C143.308 79.5467 143.051 79.7267 142.718 79.88C142.391 80.0267 142.014 80.1 141.588 80.1ZM142.958 77.02V76.99C142.958 76.53 142.831 76.1567 142.578 75.87C142.331 75.5767 141.998 75.43 141.578 75.43C141.158 75.43 140.824 75.5767 140.578 75.87C140.338 76.1567 140.218 76.53 140.218 76.99V77.02H142.958ZM147.914 80C147.848 80 147.791 79.98 147.744 79.94C147.704 79.8933 147.684 79.8367 147.684 79.77V73.23C147.684 73.1633 147.704 73.11 147.744 73.07C147.791 73.0233 147.848 73 147.914 73H148.444C148.511 73 148.564 73.0233 148.604 73.07C148.651 73.11 148.674 73.1633 148.674 73.23V79.77C148.674 79.8367 148.651 79.8933 148.604 79.94C148.564 79.98 148.511 80 148.444 80H147.914ZM152.089 80.1C151.622 80.1 151.229 80.0267 150.909 79.88C150.595 79.7267 150.359 79.5533 150.199 79.36C150.045 79.1667 149.969 79.0067 149.969 78.88C149.969 78.8133 149.992 78.7633 150.039 78.73C150.092 78.69 150.145 78.67 150.199 78.67H150.649C150.715 78.67 150.775 78.7033 150.829 78.77C150.989 78.9567 151.162 79.1033 151.349 79.21C151.535 79.3167 151.785 79.37 152.099 79.37C152.445 79.37 152.725 79.3033 152.939 79.17C153.159 79.03 153.269 78.84 153.269 78.6C153.269 78.44 153.222 78.31 153.129 78.21C153.042 78.1033 152.889 78.0133 152.669 77.94C152.455 77.86 152.135 77.7733 151.709 77.68C151.129 77.5533 150.715 77.37 150.469 77.13C150.229 76.89 150.109 76.58 150.109 76.2C150.109 75.9467 150.182 75.7067 150.329 75.48C150.482 75.2467 150.702 75.06 150.989 74.92C151.282 74.7733 151.632 74.7 152.039 74.7C152.465 74.7 152.829 74.77 153.129 74.91C153.429 75.05 153.652 75.2167 153.799 75.41C153.952 75.5967 154.029 75.7533 154.029 75.88C154.029 75.94 154.005 75.99 153.959 76.03C153.919 76.07 153.869 76.09 153.809 76.09H153.389C153.309 76.09 153.242 76.0567 153.189 75.99C153.082 75.8633 152.989 75.7667 152.909 75.7C152.835 75.6267 152.725 75.5633 152.579 75.51C152.439 75.4567 152.259 75.43 152.039 75.43C151.719 75.43 151.472 75.5 151.299 75.64C151.125 75.7733 151.039 75.95 151.039 76.17C151.039 76.31 151.075 76.43 151.149 76.53C151.222 76.6233 151.362 76.71 151.569 76.79C151.782 76.87 152.089 76.9533 152.489 77.04C153.122 77.1733 153.569 77.3667 153.829 77.62C154.095 77.8667 154.229 78.1833 154.229 78.57C154.229 78.8567 154.145 79.1167 153.979 79.35C153.812 79.5833 153.565 79.7667 153.239 79.9C152.919 80.0333 152.535 80.1 152.089 80.1ZM158.198 80C158.131 80 158.074 79.98 158.028 79.94C157.988 79.8933 157.968 79.8367 157.968 79.77V73.24C157.968 73.1667 157.988 73.11 158.028 73.07C158.074 73.0233 158.131 73 158.198 73H162.328C162.394 73 162.448 73.0233 162.488 73.07C162.534 73.11 162.558 73.1667 162.558 73.24V73.62C162.558 73.6867 162.538 73.7433 162.498 73.79C162.458 73.83 162.401 73.85 162.328 73.85H158.928V76.04H162.108C162.174 76.04 162.228 76.0633 162.268 76.11C162.314 76.15 162.338 76.2067 162.338 76.28V76.65C162.338 76.7167 162.314 76.7733 162.268 76.82C162.228 76.86 162.174 76.88 162.108 76.88H158.928V79.15H162.408C162.481 79.15 162.538 79.17 162.578 79.21C162.618 79.25 162.638 79.3067 162.638 79.38V79.77C162.638 79.8367 162.614 79.8933 162.568 79.94C162.528 79.98 162.474 80 162.408 80H158.198ZM165.566 80C165.392 80 165.269 79.9167 165.196 79.75L163.346 75.11L163.326 75.01C163.326 74.95 163.346 74.9 163.386 74.86C163.426 74.82 163.476 74.8 163.536 74.8H164.016C164.129 74.8 164.212 74.8567 164.266 74.97L165.786 78.91L167.306 74.97C167.366 74.8567 167.446 74.8 167.546 74.8H168.036C168.089 74.8 168.136 74.82 168.176 74.86C168.222 74.9 168.246 74.95 168.246 75.01L168.226 75.11L166.366 79.75C166.292 79.9167 166.169 80 165.996 80H165.566ZM171.187 80.1C170.501 80.1 169.951 79.89 169.537 79.47C169.131 79.0433 168.907 78.4633 168.867 77.73L168.857 77.39L168.867 77.06C168.914 76.34 169.141 75.7667 169.547 75.34C169.961 74.9133 170.504 74.7 171.177 74.7C171.917 74.7 172.491 74.9367 172.897 75.41C173.304 75.8767 173.507 76.51 173.507 77.31V77.48C173.507 77.5467 173.484 77.6033 173.437 77.65C173.397 77.69 173.344 77.71 173.277 77.71H169.817V77.8C169.837 78.2333 169.967 78.6033 170.207 78.91C170.454 79.21 170.777 79.36 171.177 79.36C171.484 79.36 171.734 79.3 171.927 79.18C172.127 79.0533 172.274 78.9233 172.367 78.79C172.427 78.71 172.471 78.6633 172.497 78.65C172.531 78.63 172.587 78.62 172.667 78.62H173.157C173.217 78.62 173.267 78.6367 173.307 78.67C173.347 78.7033 173.367 78.75 173.367 78.81C173.367 78.9567 173.274 79.1333 173.087 79.34C172.907 79.5467 172.651 79.7267 172.317 79.88C171.991 80.0267 171.614 80.1 171.187 80.1ZM172.557 77.02V76.99C172.557 76.53 172.431 76.1567 172.177 75.87C171.931 75.5767 171.597 75.43 171.177 75.43C170.757 75.43 170.424 75.5767 170.177 75.87C169.937 76.1567 169.817 76.53 169.817 76.99V77.02H172.557ZM174.933 80C174.866 80 174.81 79.98 174.763 79.94C174.723 79.8933 174.703 79.8367 174.703 79.77V75.04C174.703 74.9733 174.723 74.9167 174.763 74.87C174.81 74.8233 174.866 74.8 174.933 74.8H175.393C175.46 74.8 175.516 74.8233 175.563 74.87C175.61 74.9167 175.633 74.9733 175.633 75.04V75.48C175.906 75.0267 176.373 74.8 177.033 74.8H177.423C177.49 74.8 177.543 74.8233 177.583 74.87C177.63 74.91 177.653 74.9633 177.653 75.03V75.44C177.653 75.5067 177.63 75.56 177.583 75.6C177.543 75.64 177.49 75.66 177.423 75.66H176.823C176.463 75.66 176.18 75.7667 175.973 75.98C175.766 76.1867 175.663 76.47 175.663 76.83V79.77C175.663 79.8367 175.64 79.8933 175.593 79.94C175.546 79.98 175.49 80 175.423 80H174.933ZM179.412 81.9C179.358 81.9 179.312 81.88 179.272 81.84C179.232 81.8 179.212 81.7533 179.212 81.7C179.212 81.6533 179.228 81.5933 179.262 81.52L180.032 79.69L178.122 75.18C178.088 75.0933 178.072 75.0367 178.072 75.01C178.072 74.95 178.092 74.9 178.132 74.86C178.172 74.82 178.222 74.8 178.282 74.8H178.772C178.878 74.8 178.958 74.8567 179.012 74.97L180.532 78.61L182.092 74.97C182.145 74.8567 182.228 74.8 182.342 74.8H182.812C182.872 74.8 182.922 74.82 182.962 74.86C183.002 74.9 183.022 74.9467 183.022 75C183.022 75.02 183.005 75.08 182.972 75.18L180.132 81.73C180.078 81.8433 179.995 81.9 179.882 81.9H179.412ZM186.049 80C184.996 80 184.469 79.4133 184.469 78.24V75.6H183.689C183.623 75.6 183.566 75.58 183.519 75.54C183.479 75.4933 183.459 75.4367 183.459 75.37V75.03C183.459 74.9633 183.479 74.91 183.519 74.87C183.566 74.8233 183.623 74.8 183.689 74.8H184.469V73.13C184.469 73.0633 184.489 73.01 184.529 72.97C184.576 72.9233 184.633 72.9 184.699 72.9H185.169C185.236 72.9 185.289 72.9233 185.329 72.97C185.376 73.01 185.399 73.0633 185.399 73.13V74.8H186.639C186.706 74.8 186.759 74.8233 186.799 74.87C186.846 74.91 186.869 74.9633 186.869 75.03V75.37C186.869 75.4367 186.846 75.4933 186.799 75.54C186.759 75.58 186.706 75.6 186.639 75.6H185.399V78.17C185.399 78.5033 185.456 78.7567 185.569 78.93C185.683 79.0967 185.869 79.18 186.129 79.18H186.739C186.806 79.18 186.859 79.2033 186.899 79.25C186.946 79.29 186.969 79.3433 186.969 79.41V79.77C186.969 79.8367 186.946 79.8933 186.899 79.94C186.859 79.98 186.806 80 186.739 80H186.049ZM188.166 80C188.099 80 188.042 79.98 187.996 79.94C187.956 79.8933 187.936 79.8367 187.936 79.77V73.13C187.936 73.0633 187.956 73.01 187.996 72.97C188.042 72.9233 188.099 72.9 188.166 72.9H188.666C188.732 72.9 188.786 72.9233 188.826 72.97C188.872 73.01 188.896 73.0633 188.896 73.13V75.46C189.089 75.2133 189.316 75.0267 189.576 74.9C189.836 74.7667 190.159 74.7 190.546 74.7C191.186 74.7 191.682 74.9067 192.036 75.32C192.396 75.7267 192.576 76.27 192.576 76.95V79.77C192.576 79.8367 192.552 79.8933 192.506 79.94C192.466 79.98 192.412 80 192.346 80H191.846C191.779 80 191.722 79.98 191.676 79.94C191.636 79.8933 191.616 79.8367 191.616 79.77V77C191.616 76.5267 191.499 76.16 191.266 75.9C191.039 75.64 190.709 75.51 190.276 75.51C189.856 75.51 189.519 75.6433 189.266 75.91C189.019 76.17 188.896 76.5333 188.896 77V79.77C188.896 79.8367 188.872 79.8933 188.826 79.94C188.786 79.98 188.732 80 188.666 80H188.166ZM194.169 73.83C194.103 73.83 194.046 73.81 193.999 73.77C193.959 73.7233 193.939 73.6667 193.939 73.6V73.06C193.939 72.9933 193.959 72.9367 193.999 72.89C194.046 72.8433 194.103 72.82 194.169 72.82H194.799C194.866 72.82 194.923 72.8433 194.969 72.89C195.016 72.9367 195.039 72.9933 195.039 73.06V73.6C195.039 73.6667 195.016 73.7233 194.969 73.77C194.923 73.81 194.866 73.83 194.799 73.83H194.169ZM194.249 80C194.183 80 194.126 79.98 194.079 79.94C194.039 79.8933 194.019 79.8367 194.019 79.77V75.03C194.019 74.9633 194.039 74.91 194.079 74.87C194.126 74.8233 194.183 74.8 194.249 74.8H194.729C194.796 74.8 194.849 74.8233 194.889 74.87C194.936 74.91 194.959 74.9633 194.959 75.03V79.77C194.959 79.8367 194.936 79.8933 194.889 79.94C194.849 79.98 194.796 80 194.729 80H194.249ZM196.671 80C196.605 80 196.548 79.98 196.501 79.94C196.461 79.8933 196.441 79.8367 196.441 79.77V75.03C196.441 74.9633 196.461 74.91 196.501 74.87C196.548 74.8233 196.605 74.8 196.671 74.8H197.141C197.208 74.8 197.261 74.8233 197.301 74.87C197.348 74.91 197.371 74.9633 197.371 75.03V75.47C197.565 75.2233 197.791 75.0333 198.051 74.9C198.318 74.7667 198.648 74.7 199.041 74.7C199.681 74.7 200.178 74.9067 200.531 75.32C200.891 75.7267 201.071 76.27 201.071 76.95V79.77C201.071 79.8367 201.048 79.8933 201.001 79.94C200.961 79.98 200.908 80 200.841 80H200.341C200.275 80 200.218 79.98 200.171 79.94C200.131 79.8933 200.111 79.8367 200.111 79.77V77C200.111 76.5267 199.995 76.16 199.761 75.9C199.535 75.64 199.205 75.51 198.771 75.51C198.351 75.51 198.018 75.6433 197.771 75.91C197.525 76.17 197.401 76.5333 197.401 77V79.77C197.401 79.8367 197.378 79.8933 197.331 79.94C197.291 79.98 197.238 80 197.171 80H196.671ZM204.636 82.2C204.089 82.2 203.649 82.1067 203.316 81.92C202.982 81.74 202.746 81.5333 202.606 81.3C202.466 81.0667 202.389 80.8567 202.376 80.67C202.369 80.6033 202.389 80.5467 202.436 80.5C202.489 80.4533 202.546 80.43 202.606 80.43H203.086C203.146 80.43 203.196 80.4433 203.236 80.47C203.276 80.5033 203.309 80.56 203.336 80.64C203.416 80.8533 203.546 81.0367 203.726 81.19C203.912 81.35 204.199 81.43 204.586 81.43C205.079 81.43 205.442 81.3233 205.676 81.11C205.909 80.9033 206.026 80.5333 206.026 80V79.32C205.852 79.54 205.632 79.7167 205.366 79.85C205.099 79.9767 204.782 80.04 204.416 80.04C203.709 80.04 203.179 79.8167 202.826 79.37C202.479 78.9167 202.296 78.3433 202.276 77.65L202.266 77.37L202.276 77.1C202.296 76.4133 202.482 75.8433 202.836 75.39C203.189 74.93 203.716 74.7 204.416 74.7C205.116 74.7 205.662 74.9567 206.056 75.47V75.04C206.056 74.9733 206.076 74.9167 206.116 74.87C206.162 74.8233 206.219 74.8 206.286 74.8H206.746C206.812 74.8 206.869 74.8233 206.916 74.87C206.962 74.9167 206.986 74.9733 206.986 75.04V79.89C206.986 81.43 206.202 82.2 204.636 82.2ZM204.616 79.24C205.069 79.24 205.412 79.09 205.646 78.79C205.879 78.49 206.006 78.1333 206.026 77.72C206.032 77.66 206.036 77.5433 206.036 77.37C206.036 77.2033 206.032 77.09 206.026 77.03C206.006 76.6167 205.879 76.26 205.646 75.96C205.419 75.66 205.076 75.51 204.616 75.51C204.142 75.51 203.799 75.6567 203.586 75.95C203.372 76.2433 203.256 76.63 203.236 77.11L203.226 77.37L203.236 77.64C203.256 78.1133 203.372 78.5 203.586 78.8C203.799 79.0933 204.142 79.24 204.616 79.24ZM208.722 78.34C208.656 78.34 208.599 78.32 208.552 78.28C208.512 78.2333 208.492 78.1767 208.492 78.11V73.23C208.492 73.1633 208.512 73.11 208.552 73.07C208.599 73.0233 208.656 73 208.722 73H209.192C209.259 73 209.312 73.0233 209.352 73.07C209.399 73.11 209.422 73.1633 209.422 73.23V78.11C209.422 78.1767 209.399 78.2333 209.352 78.28C209.312 78.32 209.259 78.34 209.192 78.34H208.722ZM208.632 80C208.566 80 208.509 79.98 208.462 79.94C208.422 79.8933 208.402 79.8367 208.402 79.77V79.14C208.402 79.0733 208.422 79.0167 208.462 78.97C208.509 78.9233 208.566 78.9 208.632 78.9H209.272C209.339 78.9 209.392 78.9233 209.432 78.97C209.479 79.0167 209.502 79.0733 209.502 79.14V79.77C209.502 79.8367 209.479 79.8933 209.432 79.94C209.392 79.98 209.339 80 209.272 80H208.632Z" fill="#424242"/>
<rect y="15" width="140" height="2" fill="#424242"/>
<rect x="188" y="15" width="140" height="2" fill="#424242"/>
<path d="M61.2 48.84L55.4 48.76C54.1733 48.76 52.96 48.8 51.76 48.88C51.0933 53.6533 50.76 57.1867 50.76 59.48C50.76 61.7733 50.9467 63.36 51.32 64.24C49.6667 63.6533 48.4933 62.8667 47.8 61.88C47.1333 60.8667 46.8 59.6933 46.8 58.36C46.8 57 46.9333 55.2667 47.2 53.16C47.4933 51.0267 47.6667 49.8 47.72 49.48C46.8133 49.6933 46.1333 49.88 45.68 50.04C45.6267 49.56 45.6 49.0533 45.6 48.52C45.6 47 46.48 46.1067 48.24 45.84C48.8267 41.3067 49.12 37.4267 49.12 34.2C49.12 33.4 49.0667 32.3067 48.96 30.92C50.9867 31.0267 52.2533 31.5067 52.76 32.36C53.0267 32.84 53.2 33.3067 53.28 33.76C53.36 34.1867 53.4 34.9333 53.4 36C53.4 37.0667 53.2 38.8933 52.8 41.48C52.4267 44.0667 52.2267 45.48 52.2 45.72C56.9467 45.72 61.2133 45.68 65 45.6C65.5867 41.1467 65.88 37.3467 65.88 34.2C65.88 33.4 65.8267 32.3067 65.72 30.92C67.7467 31.0267 69.0133 31.5067 69.52 32.36C69.7867 32.84 69.96 33.3067 70.04 33.76C70.12 34.1867 70.16 34.9333 70.16 36C70.16 37.0667 69.72 40.6133 68.84 46.64C67.96 52.6667 67.52 56.8933 67.52 59.32C67.52 61.72 67.7067 63.36 68.08 64.24C66.4267 63.6533 65.2533 62.8667 64.56 61.88C63.8933 60.8667 63.56 59.6933 63.56 58.36C63.56 57 63.84 54.2533 64.4 50.12L64.96 46.04C64.56 47.9067 63.3067 48.84 61.2 48.84ZM91.8006 49.88C91.8006 47.2667 91.4673 45.4 90.8006 44.28C90.1606 43.1333 89.2273 42.56 88.0006 42.56C86.8006 42.56 85.5873 43.16 84.3606 44.36C83.134 45.5333 82.1606 47 81.4406 48.76C80.7473 50.4933 80.4006 52.3067 80.4006 54.2C80.4006 56.0667 80.7606 57.6933 81.4806 59.08C82.2006 60.44 83.294 61.12 84.7606 61.12C86.8406 61.12 88.534 59.8933 89.8406 57.44C91.1473 54.9867 91.8006 52.4667 91.8006 49.88ZM80.2006 48.32C81.214 45.44 82.574 43.3467 84.2806 42.04C86.014 40.7067 87.7606 40.04 89.5206 40.04C91.3073 40.04 92.7873 40.8267 93.9606 42.4C95.134 43.9467 95.7206 46.0533 95.7206 48.72C95.7206 51.6533 95.1606 54.3733 94.0406 56.88C92.7873 59.6533 90.974 61.5867 88.6006 62.68C87.3206 63.2933 85.9073 63.6 84.3606 63.6C82.2006 63.6 80.3073 62.7067 78.6806 60.92C77.054 59.1067 76.2406 56.5333 76.2406 53.2C76.2406 49.84 76.9606 46.9333 78.4006 44.48C79.8406 42.0267 81.8006 40.32 84.2806 39.36C84.814 39.36 85.0806 39.6267 85.0806 40.16C82.4406 41.8933 80.814 44.6133 80.2006 48.32ZM120.288 47.84C119.595 49.0933 119.008 50.6933 118.528 52.64C118.048 54.5867 117.808 56.4267 117.808 58.16C117.808 59.8933 117.888 61.5067 118.048 63C117.355 63.0533 116.941 63.08 116.808 63.08C114.488 63.08 113.328 61.9467 113.328 59.68C113.328 58.8533 113.608 56.8 114.168 53.52C114.755 50.24 115.048 47.7867 115.048 46.16C115.048 44.5067 114.435 43.68 113.208 43.68C111.688 43.68 110.141 45.1467 108.568 48.08C106.995 51.0133 106.208 54.5733 106.208 58.76C106.208 60.0933 106.288 61.5067 106.448 63C105.755 63.0533 105.341 63.08 105.208 63.08C102.888 63.08 101.728 61.9467 101.728 59.68C101.728 59.3867 101.995 57.4 102.528 53.72C103.088 50.04 103.368 47.1333 103.368 45C103.368 42.84 103.141 40.8667 102.688 39.08C104.288 39.6933 105.395 40.5733 106.008 41.72C106.648 42.8667 106.968 44.28 106.968 45.96C106.968 46.8133 106.875 47.8933 106.688 49.2C107.595 46.5333 108.848 44.32 110.448 42.56C112.048 40.8 113.515 39.92 114.848 39.92C117.835 39.92 119.328 42.2267 119.328 46.84C120.315 44.7067 121.448 43.0267 122.728 41.8C124.035 40.5467 125.248 39.92 126.368 39.92C127.995 39.92 129.141 40.4133 129.808 41.4C130.475 42.36 130.808 43.68 130.808 45.36C130.808 47.0133 130.541 49.3467 130.008 52.36C129.501 55.3733 129.248 57.5733 129.248 58.96C129.248 60.32 129.421 61.32 129.768 61.96C130.115 62.5733 130.701 63.1067 131.528 63.56C131.181 63.5867 130.688 63.6 130.048 63.6C128.341 63.6 127.075 63.2533 126.248 62.56C125.448 61.84 125.048 60.6267 125.048 58.92C125.048 57.9333 125.315 55.9467 125.848 52.96C126.381 49.9467 126.648 47.7333 126.648 46.32C126.648 44.56 126.035 43.68 124.808 43.68C124.115 43.68 123.368 44.0533 122.568 44.8C121.768 45.5467 121.008 46.56 120.288 47.84ZM147.429 42C145.829 42 144.469 42.92 143.349 44.76C142.256 46.6 141.523 48.76 141.149 51.24H142.269C143.683 51.24 144.909 51.04 145.949 50.64C146.989 50.24 147.789 49.72 148.349 49.08C149.416 47.8533 149.949 46.4667 149.949 44.92C149.949 44.04 149.736 43.3333 149.309 42.8C148.909 42.2667 148.283 42 147.429 42ZM153.069 58.2C151.843 60.2 150.496 61.6 149.029 62.4C147.563 63.2 145.856 63.6 143.909 63.6C141.989 63.6 140.309 62.7467 138.869 61.04C137.429 59.3333 136.709 56.9333 136.709 53.84C136.709 50.32 137.656 47.1733 139.549 44.4C140.483 43.0667 141.696 41.9867 143.189 41.16C144.709 40.3333 146.376 39.92 148.189 39.92C152.189 39.92 154.189 41.8533 154.189 45.72C154.189 48.04 153.283 49.8667 151.469 51.2C149.683 52.5067 147.603 53.16 145.229 53.16C143.656 53.16 142.243 53.0133 140.989 52.72C140.963 52.9867 140.949 53.4 140.949 53.96C140.949 58.68 142.349 61.04 145.149 61.04C147.789 61.04 149.936 59.7333 151.589 57.12C152.576 57.2533 153.069 57.6133 153.069 58.2ZM185.512 30.92C189.192 30.92 192.086 32.3733 194.192 35.28C196.299 38.1867 197.352 41.84 197.352 46.24C197.352 50.72 196.139 54.6667 193.712 58.08C192.539 59.76 190.952 61.1067 188.952 62.12C186.979 63.1067 184.926 63.6 182.792 63.6C180.686 63.6 178.819 63.3733 177.192 62.92C175.592 62.4667 174.432 62.0133 173.712 61.56L172.592 60.88C172.619 60.6667 172.912 58.68 173.472 54.92C174.646 47.08 175.232 39.9733 175.232 33.6C175.232 31.4933 175.046 30 174.672 29.12C176.886 29.8667 178.272 31.04 178.832 32.64C181.206 31.4933 183.432 30.92 185.512 30.92ZM177.232 60.2C178.406 60.6 179.832 60.8 181.512 60.8C183.192 60.8 184.819 60.3733 186.392 59.52C187.966 58.64 189.232 57.48 190.192 56.04C192.166 53.1333 193.152 49.8533 193.152 46.2C193.152 42.5467 192.339 39.6 190.712 37.36C189.086 35.12 186.899 34 184.152 34C182.312 34 180.712 34.3067 179.352 34.92C179.352 36.5733 178.992 40.7333 178.272 47.4C177.579 54.0667 177.232 58.3333 177.232 60.2ZM212.703 42C211.103 42 209.743 42.92 208.623 44.76C207.529 46.6 206.796 48.76 206.423 51.24H207.543C208.956 51.24 210.183 51.04 211.223 50.64C212.263 50.24 213.063 49.72 213.623 49.08C214.689 47.8533 215.223 46.4667 215.223 44.92C215.223 44.04 215.009 43.3333 214.583 42.8C214.183 42.2667 213.556 42 212.703 42ZM218.343 58.2C217.116 60.2 215.769 61.6 214.303 62.4C212.836 63.2 211.129 63.6 209.183 63.6C207.263 63.6 205.583 62.7467 204.143 61.04C202.703 59.3333 201.983 56.9333 201.983 53.84C201.983 50.32 202.929 47.1733 204.823 44.4C205.756 43.0667 206.969 41.9867 208.463 41.16C209.983 40.3333 211.649 39.92 213.463 39.92C217.463 39.92 219.463 41.8533 219.463 45.72C219.463 48.04 218.556 49.8667 216.743 51.2C214.956 52.5067 212.876 53.16 210.503 53.16C208.929 53.16 207.516 53.0133 206.263 52.72C206.236 52.9867 206.223 53.4 206.223 53.96C206.223 58.68 207.623 61.04 210.423 61.04C213.063 61.04 215.209 59.7333 216.863 57.12C217.849 57.2533 218.343 57.6133 218.343 58.2ZM231.103 43.88C230.063 45.1067 229.276 46.6267 228.743 48.44C228.236 50.2267 227.983 52.1467 227.983 54.2C227.983 56.2533 228.329 57.9067 229.023 59.16C229.716 60.4133 230.636 61.04 231.783 61.04C232.956 61.04 234.103 60.6933 235.223 60C236.343 59.3067 237.289 58.3467 238.063 57.12C239.049 57.2533 239.543 57.6133 239.543 58.2C238.823 59.5333 237.916 60.6267 236.823 61.48C235.756 62.3333 234.756 62.8933 233.823 63.16C232.889 63.4533 231.943 63.6 230.983 63.6C228.929 63.6 227.196 62.8 225.783 61.2C224.369 59.5733 223.663 57.2267 223.663 54.16C223.663 50.2667 224.716 46.92 226.823 44.12C228.929 41.32 231.729 39.92 235.223 39.92C237.143 39.92 238.596 40.4267 239.583 41.44C240.569 42.4267 241.062 43.5867 241.062 44.92C241.062 46.2267 240.689 47.3467 239.943 48.28C239.223 49.2133 238.289 49.68 237.143 49.68C236.423 49.68 235.809 49.56 235.303 49.32C235.729 48.84 236.089 48.1733 236.383 47.32C236.703 46.44 236.863 45.5867 236.863 44.76C236.863 42.92 236.103 42 234.583 42C233.303 42 232.143 42.6267 231.103 43.88ZM261.019 49.88C261.019 47.2667 260.686 45.4 260.019 44.28C259.379 43.1333 258.446 42.56 257.219 42.56C256.019 42.56 254.806 43.16 253.579 44.36C252.353 45.5333 251.379 47 250.659 48.76C249.966 50.4933 249.619 52.3067 249.619 54.2C249.619 56.0667 249.979 57.6933 250.699 59.08C251.419 60.44 252.513 61.12 253.979 61.12C256.059 61.12 257.753 59.8933 259.059 57.44C260.366 54.9867 261.019 52.4667 261.019 49.88ZM249.419 48.32C250.433 45.44 251.793 43.3467 253.499 42.04C255.233 40.7067 256.979 40.04 258.739 40.04C260.526 40.04 262.006 40.8267 263.179 42.4C264.353 43.9467 264.939 46.0533 264.939 48.72C264.939 51.6533 264.379 54.3733 263.259 56.88C262.006 59.6533 260.193 61.5867 257.819 62.68C256.539 63.2933 255.126 63.6 253.579 63.6C251.419 63.6 249.526 62.7067 247.899 60.92C246.273 59.1067 245.459 56.5333 245.459 53.2C245.459 49.84 246.179 46.9333 247.619 44.48C249.059 42.0267 251.019 40.32 253.499 39.36C254.033 39.36 254.299 39.6267 254.299 40.16C251.659 41.8933 250.033 44.6133 249.419 48.32ZM275.827 50C276.787 46.5333 277.934 43.9867 279.267 42.36C280.627 40.7067 281.88 39.88 283.027 39.88C284.2 39.88 285.08 40.32 285.667 41.2C286.254 42.0533 286.547 43.1467 286.547 44.48C286.547 45.8133 286.2 46.9733 285.507 47.96C284.814 48.92 283.8 49.4 282.467 49.4C282.04 49.4 281.707 49.3733 281.467 49.32C282.374 48.0133 282.827 46.68 282.827 45.32C282.827 44.36 282.44 43.88 281.667 43.88C281.054 43.88 280.4 44.24 279.707 44.96C279.014 45.68 278.347 46.68 277.707 47.96C277.067 49.24 276.534 50.9067 276.107 52.96C275.68 55.0133 275.467 57.2267 275.467 59.6C275.467 59.8667 275.534 61 275.667 63C274.974 63.0533 274.574 63.08 274.467 63.08C272.12 63.08 270.947 61.9333 270.947 59.64C270.947 59.1067 271.227 57.0533 271.787 53.48C272.347 49.9067 272.627 47.0667 272.627 44.96C272.627 42.8267 272.4 40.8667 271.947 39.08C273.52 39.6933 274.614 40.5733 275.227 41.72C275.867 42.84 276.187 44.16 276.187 45.68C276.187 47.1733 276.067 48.6133 275.827 50Z" fill="#424242"/>
<path d="M175.502 12.3314L165.273 2.85968L164.588 2.22447C164.432 2.08069 164.22 2 164 2C163.78 2 163.569 2.08069 163.412 2.22447L152.498 12.3314C152.338 12.4791 152.211 12.6551 152.126 12.8488C152.04 13.0426 151.998 13.2503 152 13.4596C152.011 14.3229 152.786 15.0121 153.718 15.0121H154.843V23H173.157V15.0121H174.306C174.758 15.0121 175.185 14.8477 175.505 14.551C175.663 14.4053 175.788 14.2321 175.873 14.0414C175.958 13.8507 176.001 13.6463 176 13.44C176 13.023 175.823 12.6282 175.502 12.3314V12.3314ZM165.482 21.2342H162.518V16.231H165.482V21.2342ZM171.251 13.2462V21.2342H167.177V15.6424C167.177 15.1003 166.703 14.6613 166.118 14.6613H161.882C161.297 14.6613 160.823 15.1003 160.823 15.6424V21.2342H156.749V13.2462H154.208L164.003 4.17915L164.614 4.74569L173.795 13.2462H171.251Z" fill="#424242"/>
</svg>
